<svg width="348" height="86" viewBox="0 0 348 86" fill="none" xmlns="http://www.w3.org/2000/svg">
<g clip-path="url(#clip0_147_2288)">
<path d="M80.7295 0.333984L43.6311 85.8318C40.1979 85.8318 37.0984 83.8291 35.7155 80.6819L0 0.333984C11.0628 0.333984 21.0765 6.86672 25.5111 17.0235L40.8654 52.0714L55.6953 16.9758C59.9392 6.86672 69.8098 0.333984 80.7295 0.333984Z" fill="white"/>
<path d="M94.3672 0.333984C103.57 0.333984 111.009 7.77272 111.009 16.9758V85.8318C101.806 85.8318 94.3672 78.3931 94.3672 69.19V0.333984Z" fill="white"/>
<path d="M182.347 69.1904C182.347 78.3458 174.908 85.8322 165.705 85.8322H142.053C132.898 85.8322 125.412 78.3935 125.412 69.1904H182.299H182.347Z" fill="white"/>
<path d="M182.347 0.142578C182.347 4.72026 180.487 8.86879 177.483 11.9206C174.479 14.9247 170.33 16.7844 165.705 16.7844H125.412C125.412 7.629 132.85 0.142578 142.053 0.142578H182.347Z" fill="white"/>
<path d="M125.505 26.7979C125.41 32.8537 125.029 35.7148 127.127 39.4342C129.272 43.1059 132.753 46.0146 137.188 47.2067L182.297 59.2708C182.297 59.2708 182.774 50.3539 180.676 46.6345C178.578 42.9151 175.049 40.0541 170.615 38.862L125.505 26.7979Z" fill="white"/>
<path d="M233.892 14.6863C236.372 14.5909 238.756 14.8293 241.045 15.3062C248.579 16.9274 256.399 14.877 262.312 9.96553C254.921 3.86195 245.384 0.142578 235.037 0.142578C210.431 0.142578 190.69 20.8852 192.311 45.8718C193.694 66.8528 210.527 84.0191 231.508 85.6881C243.238 86.6418 254.063 82.827 262.312 76.0082L262.074 75.8175C256.161 70.8583 248.293 69.1894 240.711 70.7152C238.851 71.0967 236.944 71.2875 234.989 71.2875C218.824 71.2875 205.854 57.7451 206.712 41.3894C207.475 26.9411 219.396 15.2108 233.844 14.6386L233.892 14.6863Z" fill="white"/>
<path d="M334.696 11.7777L334.363 12.0638C330.071 15.6401 324.873 17.7859 319.485 18.4058C327.878 23.3173 333.504 32.4249 333.504 42.8201C333.504 58.4605 320.82 71.1445 305.18 71.1445C289.539 71.1445 276.855 58.4605 276.855 42.8201C276.855 27.1797 288.92 15.1632 304.035 14.5434C304.274 14.5434 304.56 14.5434 304.798 14.5434C304.941 14.5434 305.037 14.5434 305.18 14.5434C305.275 14.5434 305.323 14.5434 305.418 14.5434C306.277 14.5434 307.183 14.5434 308.041 14.6864C308.089 14.6864 308.184 14.6864 308.232 14.6864C309.09 14.7818 309.948 14.9248 310.807 15.0679C310.854 15.0679 310.95 15.0679 310.997 15.0679C311.093 15.0679 311.188 15.0679 311.236 15.0679C318.722 16.6891 326.59 14.6864 332.455 9.77493C325.064 3.62367 315.527 -0.0957031 305.18 -0.0957031C281.528 -0.0957031 262.359 19.0734 262.359 42.7247C262.359 66.3761 281.528 85.5452 305.18 85.5452C328.831 85.5452 348 66.3761 348 42.7247C348 30.5176 342.898 19.5025 334.649 11.6823L334.696 11.7777Z" fill="white"/>
</g>
<defs>
<clipPath id="clip0_147_2288">
<rect width="348" height="85.8316" fill="white"/>
</clipPath>
</defs>
</svg>
