<svg width="127" height="32" viewBox="0 0 127 32" fill="none" xmlns="http://www.w3.org/2000/svg">
<g clip-path="url(#clip0_414_2070)">
<path d="M29.4616 0.121826L15.9229 31.3236C14.6699 31.3236 13.5388 30.5927 13.0341 29.4442L0 0.121826C4.03727 0.121826 7.6917 2.5059 9.31008 6.21253L14.9135 19.003L20.3256 6.19512C21.8743 2.5059 25.4766 0.121826 29.4616 0.121826Z" fill="white"/>
<path d="M34.4385 0.121826C37.7971 0.121826 40.5118 2.83654 40.5118 6.19512V31.3236C37.1532 31.3236 34.4385 28.6089 34.4385 25.2503V0.121826Z" fill="white"/>
<path d="M66.5466 25.2505C66.5466 28.5917 63.8319 31.3238 60.4733 31.3238H51.8419C48.5007 31.3238 45.7686 28.6091 45.7686 25.2505H66.5292H66.5466Z" fill="white"/>
<path d="M66.5466 0.0522461C66.5466 1.72284 65.8679 3.23681 64.7716 4.35054C63.6752 5.44687 62.1613 6.12555 60.4733 6.12555H45.7686C45.7686 2.78436 48.4833 0.0522461 51.8419 0.0522461H66.5466Z" fill="white"/>
<path d="M45.802 9.77979C45.7672 11.9898 45.6279 13.034 46.3936 14.3913C47.1767 15.7313 48.4471 16.7928 50.0655 17.2278L66.5278 21.6306C66.5278 21.6306 66.7018 18.3764 65.9361 17.019C65.1704 15.6617 63.8827 14.6175 62.2643 14.1825L45.802 9.77979Z" fill="white"/>
<path d="M85.357 5.35986C86.2619 5.32505 87.132 5.41206 87.9673 5.58608C90.7168 6.17775 93.5708 5.42947 95.7286 3.63706C93.0313 1.4096 89.5509 0.0522461 85.7747 0.0522461C76.7952 0.0522461 69.5908 7.62212 70.1825 16.7408C70.6871 24.3977 76.83 30.6624 84.4869 31.2714C88.7678 31.6195 92.7181 30.2273 95.7286 27.7388L95.6416 27.6692C93.4838 25.8594 90.6124 25.2503 87.8455 25.8072C87.1668 25.9464 86.4707 26.016 85.7573 26.016C79.858 26.016 75.1246 21.0739 75.4379 15.105C75.7163 9.83217 80.0668 5.55128 85.3396 5.34246L85.357 5.35986Z" fill="white"/>
<path d="M122.145 4.29843L122.023 4.40284C120.457 5.70799 118.56 6.49108 116.594 6.71731C119.656 8.50972 121.71 11.8335 121.71 15.6271C121.71 21.335 117.081 25.9639 111.373 25.9639C105.665 25.9639 101.036 21.335 101.036 15.6271C101.036 9.91928 105.439 5.53397 110.955 5.30775C111.042 5.30775 111.147 5.30775 111.234 5.30775C111.286 5.30775 111.321 5.30775 111.373 5.30775C111.408 5.30775 111.425 5.30775 111.46 5.30775C111.773 5.30775 112.104 5.30775 112.417 5.35995C112.435 5.35995 112.469 5.35995 112.487 5.35995C112.8 5.39476 113.113 5.44696 113.427 5.49917C113.444 5.49917 113.479 5.49917 113.496 5.49917C113.531 5.49917 113.566 5.49917 113.583 5.49917C116.315 6.09084 119.187 5.35995 121.327 3.56755C118.63 1.32269 115.149 -0.034668 111.373 -0.034668C102.742 -0.034668 95.7461 6.96094 95.7461 15.5923C95.7461 24.2237 102.742 31.2193 111.373 31.2193C120.005 31.2193 127 24.2237 127 15.5923C127 11.1374 125.138 7.11756 122.128 4.26363L122.145 4.29843Z" fill="white"/>
</g>
<defs>
<clipPath id="clip0_414_2070">
<rect width="127" height="31.3236" fill="white"/>
</clipPath>
</defs>
</svg>
